<svg xmlns="http://www.w3.org/2000/svg" viewBox="0 0 800 520" font-family="Inter, -apple-system, system-ui, sans-serif">
  <defs>
    <style>
      .box { fill: #111120; stroke-width: 2; rx: 10; }
      .label { fill: #e8e8f0; font-size: 14px; font-weight: 600; text-anchor: middle; }
      .sub { fill: #8888a0; font-size: 10px; text-anchor: middle; }
      .arrow { stroke-width: 1.5; fill: none; marker-end: url(#arrowhead); }
      .dim { fill: #555568; font-size: 10px; text-anchor: middle; }
    </style>
    <marker id="arrowhead" viewBox="0 0 10 7" refX="10" refY="3.5" markerWidth="8" markerHeight="6" orient="auto-start-reverse">
      <polygon points="0 0, 10 3.5, 0 7" fill="#8888a0"/>
    </marker>
    <marker id="arrow-blue" viewBox="0 0 10 7" refX="10" refY="3.5" markerWidth="8" markerHeight="6" orient="auto-start-reverse">
      <polygon points="0 0, 10 3.5, 0 7" fill="#4a9eff"/>
    </marker>
    <marker id="arrow-green" viewBox="0 0 10 7" refX="10" refY="3.5" markerWidth="8" markerHeight="6" orient="auto-start-reverse">
      <polygon points="0 0, 10 3.5, 0 7" fill="#4aff8a"/>
    </marker>
    <marker id="arrow-yellow" viewBox="0 0 10 7" refX="10" refY="3.5" markerWidth="8" markerHeight="6" orient="auto-start-reverse">
      <polygon points="0 0, 10 3.5, 0 7" fill="#ffd54a"/>
    </marker>
  </defs>

  <!-- Background -->
  <rect width="800" height="520" fill="#0b0b14" rx="12"/>

  <!-- Title -->
  <text x="400" y="36" fill="#e8e8f0" font-size="20" font-weight="700" text-anchor="middle">TSUNAMI</text>
  <text x="400" y="54" fill="#4a9eff" font-size="11" text-anchor="middle">Autonomous Execution Agent</text>

  <!-- Row 1: User Input → Agent Loop → LLM -->

  <!-- User Input -->
  <rect x="40" y="85" width="140" height="55" class="box" stroke="#4a9eff"/>
  <text x="110" y="110" class="label">User Input</text>
  <text x="110" y="126" class="sub">Ink CLI / Web UI</text>

  <!-- Agent Loop -->
  <rect x="240" y="75" width="300" height="75" class="box" stroke="#4a9eff"/>
  <text x="390" y="100" class="label">Agent Loop</text>
  <text x="390" y="117" fill="#ffd54a" font-size="10" text-anchor="middle" font-family="monospace">ANALYZE → THINK → TOOL → OBSERVE</text>
  <text x="390" y="135" class="sub">one tool per iteration · append-only context</text>

  <!-- LLM -->
  <rect x="600" y="85" width="160" height="55" class="box" stroke="#4aff8a"/>
  <text x="680" y="110" class="label">LLM (Local)</text>
  <text x="680" y="126" class="sub">Qwen 122B MoE / 8B</text>

  <!-- Arrows Row 1 -->
  <line x1="180" y1="112" x2="238" y2="112" class="arrow" stroke="#4a9eff" marker-end="url(#arrow-blue)"/>
  <line x1="540" y1="106" x2="598" y2="106" class="arrow" stroke="#4aff8a" marker-end="url(#arrow-green)"/>
  <line x1="598" y1="120" x2="540" y2="120" class="arrow" stroke="#4aff8a" marker-end="url(#arrow-green)"/>

  <!-- Row 2: Tools -->
  <text x="400" y="195" class="dim">tools</text>

  <!-- Tool boxes -->
  <rect x="40" y="210" width="120" height="50" class="box" stroke="#ffd54a"/>
  <text x="100" y="233" class="label" font-size="12">File Ops</text>
  <text x="100" y="249" class="sub">read / write / edit</text>

  <rect x="185" y="210" width="120" height="50" class="box" stroke="#ffd54a"/>
  <text x="245" y="233" class="label" font-size="12">Shell</text>
  <text x="245" y="249" class="sub">bash exec</text>

  <rect x="330" y="210" width="120" height="50" class="box" stroke="#ffd54a"/>
  <text x="390" y="233" class="label" font-size="12">Browser</text>
  <text x="390" y="249" class="sub">Playwright</text>

  <rect x="475" y="210" width="120" height="50" class="box" stroke="#ffd54a"/>
  <text x="535" y="233" class="label" font-size="12">Search</text>
  <text x="535" y="249" class="sub">web / grep</text>

  <rect x="620" y="210" width="120" height="50" class="box" stroke="#ffd54a"/>
  <text x="680" y="233" class="label" font-size="12">Plan</text>
  <text x="680" y="249" class="sub">todo.md</text>

  <!-- Arrows: Loop → Tools -->
  <line x1="100" y1="150" x2="100" y2="208" class="arrow" stroke="#ffd54a" marker-end="url(#arrow-yellow)"/>
  <line x1="245" y1="150" x2="245" y2="208" class="arrow" stroke="#ffd54a" marker-end="url(#arrow-yellow)"/>
  <line x1="390" y1="150" x2="390" y2="208" class="arrow" stroke="#ffd54a" marker-end="url(#arrow-yellow)"/>
  <line x1="535" y1="150" x2="535" y2="208" class="arrow" stroke="#ffd54a" marker-end="url(#arrow-yellow)"/>
  <line x1="680" y1="150" x2="680" y2="208" class="arrow" stroke="#ffd54a" marker-end="url(#arrow-yellow)"/>

  <!-- Row 3: Skills -->
  <text x="400" y="310" class="dim">skills</text>

  <rect x="80" y="325" width="140" height="50" class="box" stroke="#4a9eff"/>
  <text x="150" y="348" class="label" font-size="12">Web Builder</text>
  <text x="150" y="364" class="sub">3 CSS templates</text>

  <rect x="250" y="325" width="140" height="50" class="box" stroke="#4a9eff"/>
  <text x="320" y="348" class="label" font-size="12">Researcher</text>
  <text x="320" y="364" class="sub">deep search + citations</text>

  <rect x="420" y="325" width="140" height="50" class="box" stroke="#4a9eff"/>
  <text x="490" y="348" class="label" font-size="12">Image Gen</text>
  <text x="490" y="364" class="sub">diffusion / DALL-E</text>

  <rect x="590" y="325" width="140" height="50" class="box" stroke="#4a9eff"/>
  <text x="660" y="348" class="label" font-size="12">Projects</text>
  <text x="660" y="364" class="sub">tsunami.md context</text>

  <!-- Dashed line: Tools → Skills -->
  <line x1="400" y1="260" x2="400" y2="323" stroke="#555568" stroke-width="1" stroke-dasharray="4,4"/>

  <!-- Row 4: Output -->
  <text x="400" y="420" class="dim">output</text>

  <rect x="115" y="435" width="130" height="45" class="box" stroke="#4aff8a"/>
  <text x="180" y="457" fill="#4aff8a" font-size="12" font-weight="600" text-anchor="middle">Web Pages</text>
  <text x="180" y="471" class="sub">HTML / CSS / JS</text>

  <rect x="270" y="435" width="110" height="45" class="box" stroke="#4a9eff"/>
  <text x="325" y="457" fill="#4a9eff" font-size="12" font-weight="600" text-anchor="middle">Files</text>
  <text x="325" y="471" class="sub">code / docs</text>

  <rect x="405" y="435" width="110" height="45" class="box" stroke="#ff4a6a"/>
  <text x="460" y="457" fill="#ff4a6a" font-size="12" font-weight="600" text-anchor="middle">Slides</text>
  <text x="460" y="471" class="sub">HTML → PDF</text>

  <rect x="540" y="435" width="130" height="45" class="box" stroke="#ffd54a"/>
  <text x="605" y="457" fill="#ffd54a" font-size="12" font-weight="600" text-anchor="middle">Images</text>
  <text x="605" y="471" class="sub">generated art</text>

  <!-- Dashed line: Skills → Output -->
  <line x1="400" y1="375" x2="400" y2="433" stroke="#555568" stroke-width="1" stroke-dasharray="4,4"/>

  <!-- Bottom bar -->
  <text x="400" y="508" fill="#555568" font-size="9" text-anchor="middle">runs locally · no cloud API required · any GGUF model</text>
</svg>
